<?xml version="1.0" encoding="utf-8"?>
<!-- Generator: Adobe Illustrator 23.0.6, SVG Export Plug-In . SVG Version: 6.00 Build 0)  -->
<svg version="1.1" id="Capa_1" xmlns="http://www.w3.org/2000/svg" xmlns:xlink="http://www.w3.org/1999/xlink" x="0px" y="0px"
	 viewBox="0 0 480.8 480.8" style="enable-background:new 0 0 480.8 480.8;" xml:space="preserve">
<g>
	<path d="M-91.4-110.3c-8.5-5.2-19.6-2.6-24.8,5.9L-253,117.9c-5.2,8.5-2.6,19.6,5.9,24.8c2.9,1.8,6.2,2.7,9.4,2.7
		c6,0,12-3,15.4-8.6L-85.5-85.5C-80.3-94-82.9-105.1-91.4-110.3z"/>
	<path d="M-294.7,59.8c3.5,5,9.1,7.7,14.8,7.7c3.5,0,7.1-1.1,10.3-3.2c8.2-5.7,10.2-16.9,4.5-25.1l-102.6-147.5
		c-5.7-8.2-16.9-10.2-25.1-4.5c-8.2,5.7-10.2,16.9-4.5,25.1L-294.7,59.8z"/>
	<path d="M-239.7,6.2c1.6,0.4,3.1,0.6,4.7,0.6c8,0,15.2-5.3,17.4-13.4l57.7-215.9c2.6-9.6-3.1-19.5-12.7-22.1
		c-9.6-2.6-19.5,3.1-22.1,12.7l-57.7,215.9C-255-6.3-249.3,3.6-239.7,6.2z"/>
	<path d="M-138.9,74.4c3.1,6.5,9.5,10.2,16.3,10.2c2.6,0,5.3-0.6,7.8-1.8l49.2-23.5c9-4.3,12.8-15,8.5-24c-4.3-9-15-12.8-24-8.5
		l-49.2,23.5C-139.4,54.7-143.2,65.5-138.9,74.4z"/>
	<path d="M-296.5-72c2.1,8.1,9.4,13.4,17.4,13.4c1.5,0,3.1-0.2,4.7-0.6c9.6-2.6,15.3-12.4,12.8-22l-34.2-128.2
		c-2.6-9.6-12.4-15.3-22-12.8c-9.6,2.6-15.3,12.4-12.8,22L-296.5-72z"/>
	<path d="M-259.5,188h-1.2v-16c0-14.5-11.8-22-21.8-25.1l-13.4-25.3c-1.8-3.4-5.2-5.8-9.1-6.3l-102.8-13l-95.4-151.1
		c-2.2-3.5-6-5.6-10.2-5.6h-267c-4.9,0-9.4,3-11.2,7.6L-847,93.3h-52.1c-26.9,0-42.3,15.4-42.3,42.3v53.2
		c-12.1,2.9-21.2,13.9-21.2,26.9v20.8c0,15.2,12.4,27.6,27.6,27.6h62.9c6.2,41.5,42,73.4,85.2,73.4c43.2,0,79-31.9,85.2-73.4
		l208.8,0c6.2,41.5,42,73.4,85.2,73.4c43.2,0,79-31.9,85.2-73.4h62.9c15.2,0,27.6-12.4,27.6-27.6v-20.8
		C-231.8,200.4-244.2,188-259.5,188z M-786.8,283.4c-17.7,0-32.1-14.4-32.1-32.1c0-17.7,14.4-32.1,32.1-32.1
		c17.7,0,32.1,14.4,32.1,32.1C-754.7,269-769.1,283.4-786.8,283.4z M-407.6,283.4c-17.7,0-32.1-14.4-32.1-32.1
		c0-17.7,14.4-32.1,32.1-32.1c17.7,0,32.1,14.4,32.1,32.1C-375.5,269-389.9,283.4-407.6,283.4z"/>
	<path d="M459.7,188.7v-53.2c0-26.9-15.4-42.3-42.3-42.3h-52.1L309.8-46.8c-1.8-4.6-6.2-7.6-11.2-7.6H69c-4.1,0-8,2.1-10.2,5.6
		l-95.4,151.1l-102.8,13c-3.9,0.5-7.3,2.8-9.1,6.3l-13.4,25.3c-10,3.1-21.8,10.6-21.8,25.1v16h-1.2c-15.2,0-27.6,12.4-27.6,27.6
		v20.8c0,15.2,12.4,27.6,27.6,27.6h62.9c6.2,41.5,42,73.4,85.2,73.4c43.2,0,79-31.9,85.2-73.4l171.4,0c6.2,41.5,42,73.4,85.2,73.4
		c43.2,0,79-31.9,85.2-73.4h62.9c15.2,0,27.6-12.4,27.6-27.6v-20.8C480.8,202.6,471.8,191.6,459.7,188.7z M-36.7,283.4
		c-17.7,0-32.1-14.4-32.1-32.1c0-17.7,14.4-32.1,32.1-32.1c17.7,0,32.1,14.4,32.1,32.1C-4.6,269-19,283.4-36.7,283.4z M305.1,283.4
		c-17.7,0-32.1-14.4-32.1-32.1c0-17.7,14.4-32.1,32.1-32.1c17.7,0,32.1,14.4,32.1,32.1C337.2,269,322.8,283.4,305.1,283.4z"/>
</g>
</svg>
