<svg id="Livello_1" data-name="Livello 1" xmlns="http://www.w3.org/2000/svg" viewBox="0 0 1347.25 109.98"><defs><style>.cls-1{fill:#db3832;}.cls-2{fill:#e6863b;}.cls-3{fill:#8bbe56;}.cls-4{fill:#29a758;}.cls-5{fill:#2a8a4f;}.cls-6{fill:#f6d749;}.cls-7{fill:none;stroke:#221f20;stroke-miterlimit:10;}.cls-8{fill:#221f20;}</style></defs><title>gauge1</title><path class="cls-1" d="M1047.67,765.4l19.69.34A89.41,89.41,0,0,0,1056.5,726l-15.2,9.88a70.63,70.63,0,0,1,5,15.59A71.45,71.45,0,0,1,1047.67,765.4Z" transform="translate(66.32 -677.54)"/><path class="cls-2" d="M1037.74,733.06l15.68-10A54.86,54.86,0,0,0,1027,695.36q-2.3,3.4-4.6,6.91-2.9,4.41-5.62,8.74a50.47,50.47,0,0,1,21,22Z" transform="translate(66.32 -677.54)"/><path class="cls-3" d="M980.07,701.52q-.08-9.3-.16-18.61a54.82,54.82,0,0,0-37.5,7.72q1.65,3.75,3.41,7.56c1.46,3.2,2.94,6.33,4.41,9.41a50.89,50.89,0,0,1,13.26-5.09A50.35,50.35,0,0,1,980.07,701.52Z" transform="translate(66.32 -677.54)"/><path class="cls-4" d="M946.37,710.06l-10.82-15.15a54.92,54.92,0,0,0-26.28,27.86q3.51,2.12,7.14,4.23,4.55,2.67,9,5.17a50.35,50.35,0,0,1,20.94-22.11Z" transform="translate(66.32 -677.54)"/><path class="cls-5" d="M923,735.07l-17-7.65a54.84,54.84,0,0,0-8.69,37.29c2.74,0,5.5.07,8.3.07,3.51,0,7,0,10.4-.07a50.31,50.31,0,0,1,7-29.64Z" transform="translate(66.32 -677.54)"/><path class="cls-6" d="M1012.31,708.6l9-16.28a46.09,46.09,0,0,0-18.3-8.59c-5.64-1.26-15.52-2-19.43-1.41-.08,2.68.11,15.36.14,19.43a56.62,56.62,0,0,1,28.57,6.85Z" transform="translate(66.32 -677.54)"/><path class="cls-7" d="M1014.74,749.78" transform="translate(66.32 -677.54)"/><path class="cls-8" d="M972.82,770.88c2.88,4.8,9.35,6.22,14.45,3.16a11.12,11.12,0,0,0,5.39-9.36c0-.7.7-1.2-.6-3.31-1-1.65,28.21-32.35,27.67-32.72-1.41-.94-34,27-34.64,26.78a10.61,10.61,0,0,0-2.58-.39,10.32,10.32,0,0,0-5.66,1.61C973,759.2,969.64,765.58,972.82,770.88Z" transform="translate(66.32 -677.54)"/><path class="cls-1" d="M84.46,760.83l19.7.34a89.84,89.84,0,0,0-2.55-18.29,89.36,89.36,0,0,0-8.32-21.43L78.1,731.32a71.7,71.7,0,0,1,5,15.59A71.5,71.5,0,0,1,84.46,760.83Z" transform="translate(66.32 -677.54)"/><path class="cls-2" d="M74.53,728.5l15.68-10A54.86,54.86,0,0,0,63.75,690.8q-2.3,3.39-4.6,6.9-2.88,4.41-5.62,8.74a50.43,50.43,0,0,1,21,22.06Z" transform="translate(66.32 -677.54)"/><path class="cls-3" d="M16.86,697l-.15-18.61a54.83,54.83,0,0,0-37.51,7.72c1.1,2.5,2.24,5,3.41,7.57Q-15.2,698.42-13,703A50.45,50.45,0,0,1,16.86,697Z" transform="translate(66.32 -677.54)"/><path class="cls-4" d="M-16.84,705.49l-10.82-15.15a55,55,0,0,0-15.51,11.42A55,55,0,0,0-53.93,718.2c2.34,1.41,4.72,2.83,7.13,4.24q4.56,2.65,9,5.16a50.49,50.49,0,0,1,20.94-22.11Z" transform="translate(66.32 -677.54)"/><path class="cls-5" d="M-40.21,730.5l-17-7.65a55,55,0,0,0-7.66,17.68,54.52,54.52,0,0,0-1,19.62c2.73,0,5.5.07,8.29.07,3.52,0,7,0,10.4-.08A50.75,50.75,0,0,1-46.26,746,50.74,50.74,0,0,1-40.21,730.5Z" transform="translate(66.32 -677.54)"/><path class="cls-6" d="M49.1,704q4.51-8.14,9-16.29a46.24,46.24,0,0,0-18.3-8.58c-5.63-1.26-15.52-2-19.43-1.41-.08,2.67.11,15.36.14,19.43A56.56,56.56,0,0,1,49.1,704Z" transform="translate(66.32 -677.54)"/><path class="cls-7" d="M51.53,745.21" transform="translate(66.32 -677.54)"/><path class="cls-8" d="M28.13,767.5c2.74-4.89.75-11.2-4.44-14.11a11.1,11.1,0,0,0-10.79,0c-.61.36-1.4,0-2.58,2.16-.92,1.71-42.09-8.42-42.14-7.77-.12,1.69,40.27,16.12,40.44,16.77A11,11,0,0,0,9.56,767a10.42,10.42,0,0,0,4.21,4.12C17.91,773.16,25.1,772.89,28.13,767.5Z" transform="translate(66.32 -677.54)"/><path class="cls-1" d="M346.68,774.3l19.7.33a89.63,89.63,0,0,0-10.87-39.72l-15.19,9.88a71,71,0,0,1,6.36,29.51Z" transform="translate(66.32 -677.54)"/><path class="cls-2" d="M336.75,742l15.68-10A54.86,54.86,0,0,0,326,704.26q-2.3,3.4-4.6,6.91-2.88,4.4-5.62,8.74a50.47,50.47,0,0,1,21,22.05Z" transform="translate(66.32 -677.54)"/><path class="cls-3" d="M279.08,710.42l-.15-18.61a54.83,54.83,0,0,0-37.51,7.72q1.65,3.75,3.41,7.56,2.19,4.8,4.42,9.41a51,51,0,0,1,13.25-5.09A50.35,50.35,0,0,1,279.08,710.42Z" transform="translate(66.32 -677.54)"/><path class="cls-4" d="M245.38,719q-5.41-7.56-10.82-15.14a54.88,54.88,0,0,0-26.27,27.85q3.51,2.13,7.13,4.24,4.56,2.65,9,5.17A50.43,50.43,0,0,1,245.38,719Z" transform="translate(66.32 -677.54)"/><path class="cls-5" d="M222,744l-17-7.64a54.84,54.84,0,0,0-8.69,37.29c2.73,0,5.5.07,8.29.07,3.52,0,7,0,10.4-.07A50.28,50.28,0,0,1,222,744Z" transform="translate(66.32 -677.54)"/><path class="cls-6" d="M311.32,717.5q4.51-8.14,9-16.28a46.09,46.09,0,0,0-18.3-8.59c-5.63-1.26-15.52-2-19.43-1.41-.08,2.67.11,15.36.14,19.43a56.62,56.62,0,0,1,28.57,6.85Z" transform="translate(66.32 -677.54)"/><path class="cls-7" d="M313.75,758.68" transform="translate(66.32 -677.54)"/><path class="cls-8" d="M287.06,785.18c4.72-3,6-9.51,2.76-14.53a11.13,11.13,0,0,0-9.49-5.14c-.71,0-1.22-.67-3.3.69-1.62,1.07-33.11-27.31-33.46-26.76-.9,1.42,27.87,33.23,27.71,33.89a10.88,10.88,0,0,0-.32,2.59,10.44,10.44,0,0,0,1.76,5.62C275.38,785.34,281.84,788.5,287.06,785.18Z" transform="translate(66.32 -677.54)"/><path class="cls-1" d="M576.93,776.77l19.69.34a89.41,89.41,0,0,0-10.86-39.73l-15.2,9.88a70.63,70.63,0,0,1,5,15.59A71.45,71.45,0,0,1,576.93,776.77Z" transform="translate(66.32 -677.54)"/><path class="cls-2" d="M567,744.43l15.69-10a54.86,54.86,0,0,0-26.46-27.68c-1.53,2.27-3.07,4.57-4.6,6.91q-2.89,4.41-5.63,8.74a50.47,50.47,0,0,1,21,22Z" transform="translate(66.32 -677.54)"/><path class="cls-3" d="M509.33,712.89q-.07-9.3-.16-18.61A54.86,54.86,0,0,0,471.66,702q1.66,3.75,3.41,7.56,2.21,4.8,4.42,9.41a50.41,50.41,0,0,1,29.84-6.08Z" transform="translate(66.32 -677.54)"/><path class="cls-4" d="M475.62,721.43l-10.81-15.15a54.92,54.92,0,0,0-26.28,27.86q3.51,2.11,7.14,4.23,4.54,2.67,9,5.17a50.4,50.4,0,0,1,20.93-22.11Z" transform="translate(66.32 -677.54)"/><path class="cls-5" d="M452.25,746.44l-17-7.65a54.84,54.84,0,0,0-8.69,37.29c2.74,0,5.5.07,8.3.08,3.51,0,7,0,10.39-.08a50.43,50.43,0,0,1,7-29.64Z" transform="translate(66.32 -677.54)"/><path class="cls-6" d="M541.57,720q4.51-8.13,9-16.28a46.09,46.09,0,0,0-18.3-8.59c-5.64-1.26-15.52-2-19.43-1.41-.08,2.68.11,15.36.14,19.43A56.62,56.62,0,0,1,541.57,720Z" transform="translate(66.32 -677.54)"/><path class="cls-7" d="M544,761.15" transform="translate(66.32 -677.54)"/><path class="cls-8" d="M512.08,787.51c5.6-.22,9.94-5.21,9.71-11.16a11.14,11.14,0,0,0-5.62-9.22c-.63-.33-.72-1.19-3.2-1.06-1.93.1-14.86-40.27-15.44-40-1.5.78,7.35,42.74,6.88,43.23a12.23,12.23,0,0,0-1.58,2.08,10.48,10.48,0,0,0-1.3,5.75C501.91,781.78,505.9,787.76,512.08,787.51Z" transform="translate(66.32 -677.54)"/><path class="cls-1" d="M841.52,766.86l19.7.33a89.63,89.63,0,0,0-10.87-39.72l-15.19,9.88a71.52,71.52,0,0,1,5,15.59A70.59,70.59,0,0,1,841.52,766.86Z" transform="translate(66.32 -677.54)"/><path class="cls-2" d="M831.59,734.52l15.68-10a54.86,54.86,0,0,0-26.46-27.68q-2.29,3.4-4.6,6.91-2.88,4.41-5.62,8.74a50.47,50.47,0,0,1,21,22Z" transform="translate(66.32 -677.54)"/><path class="cls-3" d="M773.93,703q-.09-9.32-.16-18.61a54.83,54.83,0,0,0-37.51,7.72c1.11,2.5,2.24,5,3.41,7.56q2.19,4.8,4.42,9.41A51,51,0,0,1,757.34,704,50.4,50.4,0,0,1,773.93,703Z" transform="translate(66.32 -677.54)"/><path class="cls-4" d="M740.22,711.51q-5.41-7.56-10.82-15.14a54.85,54.85,0,0,0-26.27,27.86q3.51,2.12,7.13,4.23,4.56,2.65,9,5.17a50.43,50.43,0,0,1,20.94-22.12Z" transform="translate(66.32 -677.54)"/><path class="cls-5" d="M716.85,736.53l-17-7.65a54.84,54.84,0,0,0-8.69,37.29c2.73,0,5.5.07,8.29.07,3.52,0,7,0,10.4-.07a50.43,50.43,0,0,1,7-29.64Z" transform="translate(66.32 -677.54)"/><path class="cls-6" d="M806.16,710.06q4.51-8.14,9-16.28a46.09,46.09,0,0,0-18.3-8.59c-5.63-1.26-15.52-2-19.43-1.41-.08,2.67.11,15.36.14,19.43a56.56,56.56,0,0,1,28.57,6.85Z" transform="translate(66.32 -677.54)"/><path class="cls-7" d="M808.59,751.24" transform="translate(66.32 -677.54)"/><path class="cls-8" d="M770,779.29c4.93,2.65,11.21.54,14-4.7a11.16,11.16,0,0,0-.17-10.8c-.37-.6,0-1.39-2.22-2.53-1.72-.89,7.61-42.25,7-42.28-1.69-.09-15.34,40.57-16,40.75a11.58,11.58,0,0,0-2.42,1,10.39,10.39,0,0,0-4,4.29C764.15,769.19,764.56,776.37,770,779.29Z" transform="translate(66.32 -677.54)"/><path class="cls-1" d="M1261.24,764.65l19.69.34a89.33,89.33,0,0,0-10.86-39.72l-15.2,9.87a70.63,70.63,0,0,1,5,15.59A71.45,71.45,0,0,1,1261.24,764.65Z" transform="translate(66.32 -677.54)"/><path class="cls-2" d="M1251.31,732.31l15.68-10a54.86,54.86,0,0,0-26.46-27.68q-2.29,3.4-4.6,6.91-2.9,4.41-5.62,8.74a50.47,50.47,0,0,1,21,22Z" transform="translate(66.32 -677.54)"/><path class="cls-3" d="M1193.64,700.77q-.08-9.3-.16-18.61a54.82,54.82,0,0,0-37.5,7.72q1.65,3.75,3.41,7.56,2.19,4.8,4.42,9.41a50.55,50.55,0,0,1,29.83-6.08Z" transform="translate(66.32 -677.54)"/><path class="cls-4" d="M1159.94,709.31l-10.82-15.15A54.92,54.92,0,0,0,1122.84,722c2.35,1.41,4.72,2.82,7.14,4.23q4.55,2.67,9,5.17a50.35,50.35,0,0,1,20.94-22.11Z" transform="translate(66.32 -677.54)"/><path class="cls-5" d="M1136.56,734.32l-17-7.65a54.85,54.85,0,0,0-8.69,37.3c2.74,0,5.5.06,8.3.07,3.52,0,7,0,10.4-.08a50.35,50.35,0,0,1,7-29.64Z" transform="translate(66.32 -677.54)"/><path class="cls-6" d="M1225.88,707.85q4.51-8.13,9-16.28a46.09,46.09,0,0,0-18.3-8.59c-5.63-1.25-15.52-2-19.43-1.4-.08,2.67.11,15.35.14,19.42a56.62,56.62,0,0,1,28.57,6.85Z" transform="translate(66.32 -677.54)"/><path class="cls-7" d="M1228.31,749" transform="translate(66.32 -677.54)"/><path class="cls-8" d="M1184.5,765.76c0,5.6,4.82,10.14,10.77,10.14a11.15,11.15,0,0,0,9.44-5.25c.35-.61,1.22-.67,1.18-3.15,0-1.94,40.83-13.25,40.55-13.84-.71-1.54-43,5.64-43.47,5.16a11,11,0,0,0-2-1.67,10.41,10.41,0,0,0-5.69-1.52C1190.63,755.83,1184.5,759.58,1184.5,765.76Z" transform="translate(66.32 -677.54)"/></svg>