<svg xmlns="http://www.w3.org/2000/svg" viewBox="0 0 170.47 96.87"><defs><style>.cls-1{fill:#db3832;}.cls-2{fill:#e6863b;}.cls-3{fill:#8bbe56;}.cls-4{fill:#29a758;}.cls-5{fill:#2a8a4f;}.cls-6{fill:#f6d749;}.cls-7{fill:#221f20;}</style></defs><title>Risorsa 5</title><g id="Livello_2" data-name="Livello 2"><g id="Livello_1-2" data-name="Livello 1"><path class="cls-1" d="M150.78,83.29l19.69.34a89.42,89.42,0,0,0-10.86-39.72l-15.19,9.87a71.41,71.41,0,0,1,6.36,29.51Z"/><path class="cls-2" d="M140.85,51l15.68-10a54.86,54.86,0,0,0-26.46-27.68c-1.53,2.26-3.06,4.57-4.6,6.9q-2.88,4.41-5.62,8.75a50.33,50.33,0,0,1,21,22.05Z"/><path class="cls-3" d="M83.18,19.42,83,.8A55,55,0,0,0,45.52,8.52c1.1,2.5,2.24,5,3.41,7.57q2.19,4.79,4.42,9.41a50.35,50.35,0,0,1,29.83-6.08Z"/><path class="cls-4" d="M49.48,28,38.66,12.8A54.85,54.85,0,0,0,12.39,40.66c2.34,1.41,4.72,2.83,7.13,4.24q4.56,2.66,9,5.16A50.49,50.49,0,0,1,49.48,28Z"/><path class="cls-5" d="M26.1,53l-17-7.64A54.84,54.84,0,0,0,.45,82.61c2.73,0,5.5.07,8.29.07,3.52,0,7,0,10.4-.07A50.36,50.36,0,0,1,26.1,53Z"/><path class="cls-6" d="M115.42,26.5l9-16.28a46.09,46.09,0,0,0-18.3-8.59C100.51.37,90.62-.4,86.71.22c-.08,2.67.11,15.36.14,19.43a56.62,56.62,0,0,1,28.57,6.85Z"/><path class="cls-7" d="M79.27,95.73c4.93,2.64,11.21.54,14-4.7a11.16,11.16,0,0,0-.17-10.8c-.37-.6,0-1.39-2.22-2.53-1.72-.9,7.61-42.25,7-42.28-1.69-.1-15.34,40.56-16,40.75a11.36,11.36,0,0,0-2.42,1,10.39,10.39,0,0,0-4,4.29C73.41,85.63,73.81,92.81,79.27,95.73Z"/></g></g></svg>